<svg width="65" height="98" viewBox="0 0 65 98" fill="none" xmlns="http://www.w3.org/2000/svg">
<path fill-rule="evenodd" clip-rule="evenodd" d="M59.0087 49C59.0087 61.3045 55.4755 72.338 49.8866 79.8243C45.2323 86.0588 39.1523 89.8333 32.5 89.8333C25.8477 89.8333 19.7677 86.0588 15.1134 79.8243C9.52448 72.338 5.99127 61.3045 5.99127 49C5.99127 26.4483 17.8596 8.16663 32.5 8.16663C47.1404 8.16663 59.0087 26.4483 59.0087 49ZM32.5001 77.5833C37.1567 77.5833 41.4127 74.9412 44.6707 70.577C45.0458 70.0746 45.4076 69.5494 45.7553 69.0028C42.89 61.8639 38.0226 57.1666 32.5001 57.1666C26.9776 57.1666 22.1102 61.8639 19.2448 69.0028C19.5925 69.5494 19.9544 70.0746 20.3294 70.577C23.5875 74.9411 27.8434 77.5833 32.5001 77.5833ZM32.5 49C36.8921 49 40.4526 43.5155 40.4526 36.75C40.4526 29.9845 36.8921 24.5 32.5 24.5C28.1079 24.5 24.5474 29.9845 24.5474 36.75C24.5474 43.5155 28.1079 49 32.5 49Z" fill="white" stroke="white" stroke-linejoin="round"/>
</svg>
