<svg width="100" height="100" viewBox="0 0 100 100" fill="none" xmlns="http://www.w3.org/2000/svg">
<path d="M84.3125 43.8955H49.2917C46.956 43.8955 45.0625 45.789 45.0625 48.1247V83.1455C45.0625 85.4812 46.956 87.3747 49.2917 87.3747H84.3125C86.6482 87.3747 88.5417 85.4812 88.5417 83.1455V48.1247C88.5417 45.789 86.6482 43.8955 84.3125 43.8955Z" stroke="white" stroke-width="5" stroke-linecap="round" stroke-linejoin="round"/>
<path d="M49.9792 48.8125H57.7084V56.5417H49.9792V48.8125ZM49.9792 75.2083H57.7084V82.9375H49.9792V75.2083ZM49.9792 61.2292H57.7084V70.5H49.9792V61.2292ZM80.5626 65.1458L64.0209 55.6042C63.8921 55.5322 63.7469 55.4948 63.5993 55.4956C63.4518 55.4964 63.307 55.5354 63.179 55.6088C63.051 55.6823 62.9442 55.7876 62.8691 55.9146C62.7939 56.0415 62.7529 56.1858 62.7501 56.3333V75.4167C62.7529 75.5642 62.7939 75.7085 62.8691 75.8354C62.9442 75.9624 63.051 76.0677 63.179 76.1412C63.307 76.2146 63.4518 76.2536 63.5993 76.2544C63.7469 76.2553 63.8921 76.2178 64.0209 76.1458L80.5626 66.6667C80.7093 66.6009 80.8338 66.4941 80.9212 66.3592C81.0085 66.2243 81.055 66.067 81.055 65.9063C81.055 65.7455 81.0085 65.5882 80.9212 65.4533C80.8338 65.3184 80.7093 65.2116 80.5626 65.1458Z" stroke="white" stroke-linecap="round" stroke-linejoin="round"/>
<path d="M59.7499 19.4169L35.9999 12.7711C35.3626 12.5773 34.6882 12.5391 34.0331 12.6597C33.378 12.7804 32.7614 13.0563 32.2349 13.4644C31.7085 13.8725 31.2875 14.4009 31.0074 15.0052C30.7273 15.6096 30.5961 16.2722 30.6249 16.9377V57.0836C28.1458 55.7129 25.2849 55.1951 22.4827 55.6101C19.6804 56.0251 17.0924 57.3498 15.117 59.3802C13.1416 61.4106 11.8884 64.0341 11.5505 66.8467C11.2126 69.6592 11.8086 72.5049 13.2469 74.9454C14.6851 77.3859 16.8858 79.286 19.51 80.3529C22.1342 81.4199 25.0363 81.5946 27.7695 80.8501C30.5027 80.1056 32.9154 78.4832 34.636 76.2329C36.3566 73.9825 37.2897 71.2289 37.2916 68.3961V67.7711V31.5002L59.0208 37.5002C59.6581 37.694 60.3325 37.7322 60.9876 37.6116C61.6427 37.4909 62.2593 37.215 62.7858 36.8069C63.3122 36.3988 63.7332 35.8704 64.0133 35.2661C64.2934 34.6617 64.4246 33.999 64.3958 33.3336V25.5419C64.3968 24.1536 63.9432 22.8032 63.1042 21.6971C62.2652 20.591 61.0871 19.7901 59.7499 19.4169Z" stroke="white" stroke-width="5" stroke-linecap="round" stroke-linejoin="round"/>
</svg>
