<svg width="100" height="100" viewBox="0 0 100 100" fill="none" xmlns="http://www.w3.org/2000/svg">
<path d="M13.7622 21.5588V13.8739C13.7622 13.0014 13.4156 12.1646 12.7986 11.5477C12.1817 10.9307 11.3449 10.5841 10.4724 10.5841C9.5999 10.5841 8.76313 10.9307 8.14619 11.5477C7.52924 12.1646 7.18264 13.0014 7.18264 13.8739V33.6124C7.18264 34.4849 7.52924 35.3217 8.14619 35.9387C8.76313 36.5556 9.5999 36.9022 10.4724 36.9022H26.9212C27.7937 36.9022 28.6304 36.5556 29.2474 35.9387C29.8643 35.3217 30.2109 34.4849 30.2109 33.6124C30.2109 32.7399 29.8643 31.9032 29.2474 31.2862C28.6304 30.6693 27.7937 30.3227 26.9212 30.3227H15.7492C20.4648 22.1497 27.9518 15.936 36.8539 12.8075C45.756 9.67893 55.4842 9.84242 64.2761 13.2683C73.068 16.6942 80.3421 23.156 84.7803 31.4828C89.2187 39.8096 90.5276 49.4508 88.4701 58.6596C86.4126 67.8683 81.1247 76.0356 73.5645 81.6816C66.0043 87.3276 56.6718 90.079 47.2578 89.4372C37.8438 88.7954 28.9711 84.8029 22.2471 78.183C15.5231 71.5631 11.3926 62.7538 10.604 53.351C10.5483 52.4742 10.1661 51.65 9.5328 51.041C8.89948 50.4321 8.06098 50.0825 7.18264 50.0612C6.75333 50.0524 6.32683 50.1324 5.92985 50.2961C5.53287 50.4597 5.17398 50.7036 4.87564 51.0125C4.57731 51.3213 4.34596 51.6884 4.1961 52.0908C4.04624 52.4932 3.98109 52.9222 4.00473 53.351C4.77349 64.0711 9.26717 74.1849 16.7076 81.9407C24.148 89.6966 34.0665 94.6061 44.7455 95.819C55.4245 97.032 66.1915 94.472 75.1818 88.5824C84.1721 82.6928 90.8195 73.8446 93.973 63.5699C97.1264 53.2952 96.5872 42.2413 92.4487 32.3223C88.3103 22.4034 80.8332 14.2441 71.3123 9.25743C61.7915 4.27081 50.8265 2.77091 40.3163 5.01748C29.806 7.26404 20.4124 13.1156 13.7622 21.5588ZM36.7905 36.9088C36.7908 35.7566 37.0938 34.6247 37.669 33.6263C38.2441 32.628 39.0714 31.7982 40.068 31.2199C41.0646 30.6417 42.1956 30.3353 43.3477 30.3314C44.4999 30.3275 45.6329 30.6263 46.6334 31.1978L69.6486 44.3568C70.6549 44.9325 71.4912 45.7639 72.0729 46.7668C72.6546 47.7697 72.9609 48.9085 72.9609 50.0678C72.9609 51.2272 72.6546 52.366 72.0729 53.3689C71.4912 54.3717 70.6549 55.2031 69.6486 55.7788L46.6334 68.9313C45.6329 69.5028 44.4999 69.8015 43.3477 69.7976C42.1956 69.7937 41.0646 69.4873 40.068 68.9091C39.0714 68.3309 38.2441 67.5011 37.669 66.5027C37.0938 65.5044 36.7908 64.3725 36.7905 63.2203V36.9088ZM66.3851 50.0678L43.37 36.9022V63.2203L66.3851 50.0678Z" fill="white"/>
</svg>
