<svg width="100" height="100" viewBox="0 0 100 100" fill="none" xmlns="http://www.w3.org/2000/svg">
<path d="M87.4916 49.9997C87.4999 48.0413 87.4999 50.1247 87.4999 47.9163C87.4999 29.258 87.4999 19.9247 81.7041 14.1288C75.9082 8.33301 66.5791 8.33301 47.9166 8.33301C29.2583 8.33301 19.9249 8.33301 14.1291 14.1288C8.33325 19.9247 8.33325 29.2538 8.33325 47.9163C8.33325 66.5747 8.33325 75.908 14.1291 81.7038C19.9249 87.4997 29.2541 87.4997 47.9166 87.4997H49.9999M8.74109 29.1663H87M68.5 8.91802L56.2499 29.1663M39.5274 8.35795L27.0833 29.1663" stroke="white" stroke-width="5" stroke-linecap="round" stroke-linejoin="round"/>
<path d="M62.5623 64.1118C67.0332 61.4451 70.9332 62.5201 73.2748 64.2285C74.2332 64.9326 74.7165 65.2826 74.9998 65.2826C75.2832 65.2826 75.7623 64.9326 76.7248 64.2285C79.0665 62.5201 82.9665 61.4451 87.4373 64.1118C93.304 67.6118 94.629 79.1493 81.104 88.8826C78.5207 90.7368 77.2373 91.666 74.9998 91.666C72.7623 91.666 71.4748 90.7368 68.8998 88.8826C55.3706 79.1493 56.6957 67.6076 62.5623 64.1118Z" stroke="white" stroke-width="5" stroke-linecap="round" stroke-linejoin="round"/>
</svg>
