<svg width="100" height="100" viewBox="0 0 100 100" fill="none" xmlns="http://www.w3.org/2000/svg">
<path d="M4.35722 43.8501C3.89069 47.6286 3.89069 51.4501 4.35722 55.2287M22.2501 12.8501C25.2899 10.5553 28.6004 8.64336 32.1072 7.15723M7.62865 31.6429C9.11254 28.1365 11.0221 24.8259 13.3144 21.7858M35.8144 62.6001V37.4001C35.8144 34.4858 39.2001 32.6429 41.9572 34.0572L66.5358 46.6644C67.1714 46.9599 67.7094 47.4308 68.0864 48.0218C68.4633 48.6128 68.6636 49.2991 68.6636 50.0001C68.6636 50.701 68.4633 51.3874 68.0864 51.9784C67.7094 52.5693 67.1714 53.0403 66.5358 53.3358L41.9644 65.9429C39.2001 67.3572 35.8144 65.5144 35.8144 62.6001Z" stroke="white" stroke-width="5" stroke-linecap="round" stroke-linejoin="round"/>
<path d="M50.0857 3.57129C75.4429 3.57129 95.9929 24.357 95.9929 49.9999C95.9929 75.6427 75.4429 96.4284 50.0857 96.4284C32.6143 96.4284 17.4214 86.557 9.66431 72.0284" stroke="white" stroke-width="5" stroke-linecap="round" stroke-linejoin="round"/>
</svg>
