<svg width="101" height="102" viewBox="0 0 101 102" fill="none" xmlns="http://www.w3.org/2000/svg">
<path d="M4.12646 60.4024V69.6897C4.12646 82.822 4.12646 89.3928 8.20826 93.47C12.2854 97.5518 18.8562 97.5518 31.9885 97.5518H69.138M69.138 97.5518C82.2703 97.5518 88.8411 97.5518 92.9182 93.47C97 89.3928 97 82.822 97 69.6897V51.115C97 37.9827 97 31.4119 92.9182 27.3347C88.8411 23.2529 82.2703 23.2529 69.138 23.2529M69.138 97.5518V60.4024M69.138 23.2529H31.9885C18.8562 23.2529 12.2854 23.2529 8.20826 27.3347C5.22702 30.3113 4.42366 34.616 4.20541 41.8276M69.138 23.2529V41.8276M36.6322 4.67822L50.5632 20.9311L64.4943 4.67822" stroke="white" stroke-width="7.5" stroke-linecap="round"/>
<path d="M87.7127 69.6896C87.7127 68.458 87.2235 67.2769 86.3526 66.406C85.4818 65.5352 84.3006 65.0459 83.069 65.0459C81.8375 65.0459 80.6563 65.5352 79.7855 66.406C78.9146 67.2769 78.4254 68.458 78.4254 69.6896C78.4254 70.9212 78.9146 72.1023 79.7855 72.9732C80.6563 73.844 81.8375 74.3333 83.069 74.3333C84.3006 74.3333 85.4818 73.844 86.3526 72.9732C87.2235 72.1023 87.7127 70.9212 87.7127 69.6896ZM87.7127 51.1149C87.7127 49.8833 87.2235 48.7022 86.3526 47.8313C85.4818 46.9604 84.3006 46.4712 83.069 46.4712C81.8375 46.4712 80.6563 46.9604 79.7855 47.8313C78.9146 48.7022 78.4254 49.8833 78.4254 51.1149C78.4254 52.3465 78.9146 53.5276 79.7855 54.3984C80.6563 55.2693 81.8375 55.7585 83.069 55.7585C84.3006 55.7585 85.4818 55.2693 86.3526 54.3984C87.2235 53.5276 87.7127 52.3465 87.7127 51.1149Z" fill="white"/>
</svg>
