<svg width="100" height="100" viewBox="0 0 100 100" fill="none" xmlns="http://www.w3.org/2000/svg">
<path d="M50 4C56.0408 4 62.0225 5.18983 67.6034 7.50154C73.1844 9.81326 78.2554 13.2016 82.5269 17.4731C86.7984 21.7446 90.1868 26.8156 92.4985 32.3966C94.8102 37.9775 96 43.9592 96 50C96 62.2 91.1536 73.9002 82.5269 82.5269C73.9002 91.1536 62.2 96 50 96C43.9592 96 37.9775 94.8102 32.3966 92.4985C26.8156 90.1868 21.7446 86.7984 17.4731 82.5269C8.84641 73.9002 4 62.2 4 50C4 37.8 8.84641 26.0998 17.4731 17.4731C26.0998 8.84641 37.8 4 50 4ZM50 13.2C46.95 13.2 44.0249 14.4116 41.8683 16.5683C39.7116 18.7249 38.5 21.65 38.5 24.7C38.5 27.75 39.7116 30.6751 41.8683 32.8317C44.0249 34.9884 46.95 36.2 50 36.2C53.05 36.2 55.9751 34.9884 58.1317 32.8317C60.2884 30.6751 61.5 27.75 61.5 24.7C61.5 21.65 60.2884 18.7249 58.1317 16.5683C55.9751 14.4116 53.05 13.2 50 13.2ZM15.04 38.638C14.0967 41.5355 14.342 44.689 15.722 47.4058C17.102 50.1226 19.5038 52.1807 22.4 53.128C28.472 55.06 34.958 51.794 36.89 45.722C37.8333 42.8245 37.588 39.671 36.208 36.9542C34.828 34.2374 32.4262 32.1793 29.53 31.232C23.504 29.3 16.972 32.566 15.04 38.638ZM85.006 38.5C83.028 32.566 76.542 29.3 70.516 31.232C69.0743 31.6911 67.7378 32.4313 66.5838 33.4098C65.4298 34.3884 64.481 35.5859 63.7924 36.9332C63.1038 38.2804 62.689 39.7508 62.5718 41.2593C62.4547 42.7678 62.6376 44.2846 63.11 45.722C64.0573 48.6182 66.1154 51.02 68.8322 52.4C71.549 53.78 74.7025 54.0253 77.6 53.082C83.626 51.15 86.938 44.618 85.006 38.5ZM28.426 79.716C33.532 83.488 40.8 82.338 44.48 77.186C48.206 72.034 47.056 64.858 41.904 61.132C39.4364 59.3479 36.3632 58.6126 33.3553 59.0866C30.3474 59.5606 27.6493 61.2055 25.85 63.662C22.124 68.814 23.274 75.99 28.426 79.716ZM71.62 79.716C76.772 75.99 77.922 68.814 74.196 63.662C73.3112 62.4377 72.193 61.4004 70.9058 60.61C69.6185 59.8196 68.1876 59.2916 66.6954 59.0565C65.2033 58.8213 63.6794 58.8836 62.2114 59.2399C60.7434 59.5961 59.3604 60.2391 58.142 61.132C56.9176 62.0161 55.8795 63.1329 55.0872 64.4186C54.2949 65.7043 53.7639 67.1336 53.5246 68.6248C53.2854 70.1159 53.3425 71.6396 53.6928 73.1087C54.0431 74.5777 54.6796 75.9633 55.566 77.186C59.2 82.338 66.514 83.442 71.62 79.716ZM50 43.1C48.17 43.1 46.415 43.827 45.121 45.121C43.827 46.415 43.1 48.17 43.1 50C43.1 51.83 43.827 53.585 45.121 54.879C46.415 56.173 48.17 56.9 50 56.9C51.83 56.9 53.585 56.173 54.879 54.879C56.173 53.585 56.9 51.83 56.9 50C56.9 48.17 56.173 46.415 54.879 45.121C53.585 43.827 51.83 43.1 50 43.1Z" stroke="white" stroke-width="4"/>
</svg>
