<svg width="100" height="100" viewBox="0 0 100 100" fill="none" xmlns="http://www.w3.org/2000/svg">
<path d="M10.7728 31.2503H89.1045M70.5639 11L58.3334 31.2503M41.612 10.4419L29.1667 31.2503M10.4167 50.0003C10.4167 31.342 10.4167 22.0087 16.2126 16.2128C22.0084 10.417 31.3376 10.417 50.0001 10.417C68.6584 10.417 77.9917 10.417 83.7876 16.2128C89.5834 22.0087 89.5834 31.3378 89.5834 50.0003C89.5834 68.6587 89.5834 77.992 83.7876 83.7878C77.9917 89.5837 68.6626 89.5837 50.0001 89.5837C31.3417 89.5837 22.0084 89.5837 16.2126 83.7878C10.4167 77.992 10.4167 68.6628 10.4167 50.0003Z" stroke="white" stroke-width="5" stroke-linecap="round" stroke-linejoin="round"/>
<path d="M62.3042 62.0631C61.675 64.6756 58.6917 66.5214 52.7208 70.2089C46.9583 73.7756 44.075 75.5631 41.75 74.8422C40.774 74.5304 39.8974 73.9671 39.2083 73.2089C37.5 71.3339 37.5 67.6964 37.5 60.4172C37.5 53.1381 37.5 49.5006 39.2083 47.6256C39.9167 46.8506 40.7917 46.2881 41.75 45.9881C44.075 45.2714 46.9583 47.0589 52.725 50.6256C58.6917 54.3172 61.675 56.1631 62.3083 58.7714C62.5668 59.8534 62.5668 60.9811 62.3083 62.0631" stroke="white" stroke-width="5" stroke-linecap="round" stroke-linejoin="round"/>
</svg>
