<svg width="72" height="60" viewBox="0 0 72 60" fill="none" xmlns="http://www.w3.org/2000/svg">
<path d="M3.85669 6.88721V24.2572H21.2267" stroke="white" stroke-width="7" stroke-linecap="round" stroke-linejoin="round"/>
<path d="M67.5468 53.2077V35.8376H50.1768" stroke="white" stroke-width="7" stroke-linecap="round" stroke-linejoin="round"/>
<path d="M60.2803 21.3632C58.8121 17.214 56.3167 13.5044 53.027 10.5805C49.7373 7.65659 45.7605 5.61367 41.4678 4.64238C37.175 3.67108 32.7061 3.80307 28.4782 5.02601C24.2502 6.24896 20.4009 8.52301 17.2895 11.636L3.85669 24.2582M67.5468 35.8382L54.114 48.4604C51.0026 51.5734 47.1533 53.8474 42.9253 55.0704C38.6974 56.2933 34.2285 56.4253 29.9357 55.454C25.643 54.4827 21.6662 52.4398 18.3765 49.5159C15.0868 46.592 12.5914 42.8824 11.1232 38.7332" stroke="white" stroke-width="7" stroke-linecap="round" stroke-linejoin="round"/>
</svg>
