<svg width="100" height="100" viewBox="0 0 100 100" fill="none" xmlns="http://www.w3.org/2000/svg">
<path d="M87.5 50C87.5 29.2969 70.7031 12.5 50 12.5C29.2969 12.5 12.5 29.2969 12.5 50C12.5 70.7031 29.2969 87.5 50 87.5C70.7031 87.5 87.5 70.7031 87.5 50Z" stroke="white" stroke-width="5" stroke-miterlimit="10"/>
<path d="M66.7071 38.6424L64.4864 36.0584C61.4495 32.8788 57.4576 30.7774 53.1174 30.0737C48.7771 29.3701 44.3258 30.1025 40.4398 32.1598C36.5539 34.217 33.4458 37.4866 31.5878 41.4717C29.7299 45.4568 29.2237 49.9395 30.1461 54.2386C31.0685 58.5377 33.3692 62.4181 36.6985 65.2901C40.0278 68.1622 44.2037 69.8689 48.5916 70.1508C52.9794 70.4328 57.3394 69.2746 61.0089 66.8523C64.6784 64.43 67.4568 60.8759 68.9219 56.7303" stroke="white" stroke-width="5" stroke-miterlimit="10" stroke-linecap="round"/>
<path d="M71.7422 31.6407C71.5237 31.6416 71.3076 31.6859 71.1064 31.7711C70.9052 31.8563 70.723 31.9806 70.5703 32.1368L58.9414 43.7657C58.7054 44.0008 58.5445 44.3006 58.4792 44.6273C58.4139 44.9539 58.447 45.2926 58.5744 45.6003C58.7018 45.9081 58.9178 46.1711 59.1949 46.356C59.472 46.5408 59.7977 46.6393 60.1308 46.6387H71.7597C72.2063 46.6387 72.6345 46.4613 72.9502 46.1456C73.266 45.8299 73.4433 45.4017 73.4433 44.9551V33.3223C73.4439 33.1 73.4003 32.8798 73.3152 32.6744C73.23 32.469 73.105 32.2826 72.9474 32.1258C72.7897 31.9691 72.6025 31.8452 72.3967 31.7612C72.1908 31.6773 71.9703 31.635 71.748 31.6368L71.7422 31.6407Z" fill="white"/>
</svg>
