<svg width="100" height="100" viewBox="0 0 100 100" fill="none" xmlns="http://www.w3.org/2000/svg">
<path d="M16.2916 71.5833C15.4999 71.5833 14.7083 71.2916 14.0833 70.6666C8.37492 64.9166 5.20825 57.3333 5.20825 49.2916C5.20825 32.5833 18.7499 18.9999 35.4166 18.9999L60.7083 19.0833L56.1666 14.7499C54.9166 13.5416 54.8749 11.5833 56.0833 10.3333C57.2916 9.08328 59.2499 9.04161 60.4999 10.2499L70.6666 19.9999C71.5833 20.8749 71.8749 22.2499 71.4166 23.4166C70.9583 24.5833 69.7916 25.3749 68.4999 25.3749L35.4166 25.2916C22.2083 25.2916 11.4583 36.0833 11.4583 49.3333C11.4583 55.7083 13.9583 61.75 18.4999 66.2916C19.7083 67.5 19.7083 69.4999 18.4999 70.7083C17.8749 71.2916 17.0833 71.5833 16.2916 71.5833Z" fill="white"/>
<path d="M41.6667 90.6253C40.8751 90.6253 40.1251 90.3337 39.5001 89.7503L29.3334 80.0003C28.4167 79.1253 28.1251 77.7503 28.5834 76.5837C29.0417 75.417 30.2084 74.6253 31.5001 74.6253L64.6251 74.7087C77.8334 74.7087 88.5834 63.917 88.5834 50.667C88.5834 44.292 86.0834 38.2503 81.5417 33.7087C80.3334 32.5003 80.3334 30.5003 81.5417 29.292C82.7501 28.0837 84.7501 28.0837 85.9584 29.292C91.6667 35.042 94.8334 42.6253 94.8334 50.667C94.8334 67.3753 81.2917 80.9587 64.6251 80.9587L39.3334 80.8753L43.8751 85.2087C45.1251 86.417 45.1667 88.3753 43.9584 89.6253C43.2917 90.292 42.5001 90.6253 41.6667 90.6253Z" fill="white"/>
<path d="M37.5001 64.5837H62.5001C70.5001 64.5837 77.0834 58.042 77.0834 50.0003C77.0834 42.0003 70.5418 35.417 62.5001 35.417H37.5001C29.5001 35.417 22.9167 41.9587 22.9167 50.0003C22.9167 58.042 29.4584 64.5837 37.5001 64.5837Z" fill="white"/>
</svg>
