<svg width="100" height="100" viewBox="0 0 100 100" fill="none" xmlns="http://www.w3.org/2000/svg">
<path d="M63.8416 32.6628L56.5936 18.167H61.5729L69.4916 34.0045L69.9062 34.8337H70.8332H83.3333H85.7603L84.6749 32.6628L77.427 18.167H90.1666V49.6768C88.5916 47.9055 86.7881 46.3269 84.8333 45.0179V41.667V40.167H83.3333H25.0819L18.0005 26.3976L15.1666 27.0837V75.0003V76.5003H16.6666H41.3699C41.8809 78.2606 42.4546 80.0886 43.278 81.8337H16.6666C12.9117 81.8337 9.83325 78.7552 9.83325 75.0003V25.0003C9.83325 21.2454 12.9117 18.167 16.6666 18.167H19.9062L27.8249 34.0045L28.2395 34.8337H29.1666H41.6666H44.0936L43.0082 32.6628L35.7603 18.167H40.7395L48.6583 34.0045L49.0729 34.8337H49.9999H62.4999H64.927L63.8416 32.6628ZM83.2809 78.0061L82.7125 79.0009L83.5226 79.811L95.3786 91.667L91.6666 95.379L79.8106 83.523L78.9121 82.6245L77.8781 83.3631C75.2738 85.2233 72.267 86.0003 68.7499 86.0003C59.1617 86.0003 51.4999 78.3386 51.4999 68.7503C51.4999 59.1621 59.1617 51.5003 68.7499 51.5003C78.3382 51.5003 85.9999 59.1621 85.9999 68.7503C85.9999 72.157 84.8661 75.232 83.2809 78.0061ZM56.8333 68.7503C56.8333 75.4121 62.0882 80.667 68.7499 80.667C75.4117 80.667 80.6666 75.4121 80.6666 68.7503C80.6666 62.0886 75.4117 56.8337 68.7499 56.8337C62.0882 56.8337 56.8333 62.0886 56.8333 68.7503Z" stroke="white" stroke-width="3"/>
</svg>
