<svg width="100" height="100" viewBox="0 0 100 100" fill="none" xmlns="http://www.w3.org/2000/svg">
<path d="M50 96C75.4058 96 96 75.4058 96 50C96 24.5942 75.4058 4 50 4C24.5942 4 4 24.5942 4 50C4 75.4058 24.5942 96 50 96Z" stroke="white" stroke-width="5" stroke-linejoin="round"/>
<g filter="url(#filter0_d_166_213)">
<path d="M50.0001 38.2004C52.3606 38.2004 54.6243 37.2627 56.2934 35.5936C57.9625 33.9246 58.9001 31.6608 58.9001 29.3004C58.9001 26.94 57.9625 24.6762 56.2934 23.0071C54.6243 21.3381 52.3606 20.4004 50.0001 20.4004C47.6397 20.4004 45.376 21.3381 43.7069 23.0071C42.0378 24.6762 41.1001 26.94 41.1001 29.3004C41.1001 31.6608 42.0378 33.9246 43.7069 35.5936C45.376 37.2627 47.6397 38.2004 50.0001 38.2004ZM50.0001 79.6004C52.3606 79.6004 54.6243 78.6627 56.2934 76.9936C57.9625 75.3246 58.9001 73.0608 58.9001 70.7004C58.9001 68.34 57.9625 66.0762 56.2934 64.4071C54.6243 62.7381 52.3606 61.8004 50.0001 61.8004C47.6397 61.8004 45.376 62.7381 43.7069 64.4071C42.0378 66.0762 41.1001 68.34 41.1001 70.7004C41.1001 73.0608 42.0378 75.3246 43.7069 76.9936C45.376 78.6627 47.6397 79.6004 50.0001 79.6004ZM29.3001 58.9004C31.6606 58.9004 33.9243 57.9627 35.5934 56.2936C37.2625 54.6246 38.2001 52.3608 38.2001 50.0004C38.2001 47.64 37.2625 45.3762 35.5934 43.7071C33.9243 42.0381 31.6606 41.1004 29.3001 41.1004C26.9397 41.1004 24.676 42.0381 23.0069 43.7071C21.3378 45.3762 20.4001 47.64 20.4001 50.0004C20.4001 52.3608 21.3378 54.6246 23.0069 56.2936C24.676 57.9627 26.9397 58.9004 29.3001 58.9004ZM70.7001 58.9004C73.0606 58.9004 75.3243 57.9627 76.9934 56.2936C78.6625 54.6246 79.6001 52.3608 79.6001 50.0004C79.6001 47.64 78.6625 45.3762 76.9934 43.7071C75.3243 42.0381 73.0606 41.1004 70.7001 41.1004C68.3397 41.1004 66.076 42.0381 64.4069 43.7071C62.7378 45.3762 61.8001 47.64 61.8001 50.0004C61.8001 52.3608 62.7378 54.6246 64.4069 56.2936C66.076 57.9627 68.3397 58.9004 70.7001 58.9004Z" stroke="white" stroke-width="4" stroke-linejoin="round" shape-rendering="crispEdges"/>
</g>
<path d="M50 96H96" stroke="white" stroke-width="5" stroke-linecap="round"/>
<defs>
<filter id="filter0_d_166_213" x="14.4001" y="18.4004" width="71.2" height="71.2002" filterUnits="userSpaceOnUse" color-interpolation-filters="sRGB">
<feFlood flood-opacity="0" result="BackgroundImageFix"/>
<feColorMatrix in="SourceAlpha" type="matrix" values="0 0 0 0 0 0 0 0 0 0 0 0 0 0 0 0 0 0 127 0" result="hardAlpha"/>
<feOffset dy="4"/>
<feGaussianBlur stdDeviation="2"/>
<feComposite in2="hardAlpha" operator="out"/>
<feColorMatrix type="matrix" values="0 0 0 0 0 0 0 0 0 0 0 0 0 0 0 0 0 0 0.25 0"/>
<feBlend mode="normal" in2="BackgroundImageFix" result="effect1_dropShadow_166_213"/>
<feBlend mode="normal" in="SourceGraphic" in2="effect1_dropShadow_166_213" result="shape"/>
</filter>
</defs>
</svg>
