<svg width="100" height="100" viewBox="0 0 100 100" fill="none" xmlns="http://www.w3.org/2000/svg">
<path d="M42.4583 49.9997C42.4583 51.7811 42.9984 53.3862 44.095 54.7456C44.7486 55.5559 45.5238 56.1999 46.4085 56.6756C45.9591 57.4782 45.5757 58.3093 45.2592 59.1686C44.9439 60.0243 44.709 60.9139 44.5525 61.8354C42.6367 60.9176 41.0173 59.5892 39.6792 57.8387C37.9806 55.6168 37.1225 53.0255 37.125 50.0009V49.9997C37.125 46.3696 38.3907 43.3137 40.9565 40.7478C43.5223 38.182 46.5782 36.9163 50.2083 36.9163C53.8384 36.9163 56.8944 38.182 59.4602 40.7478C61.6646 42.9522 62.9093 45.5184 63.2162 48.4997H60.4167C59.5844 48.4997 58.792 48.5571 58.0427 48.6768C57.9531 48.6911 57.8638 48.7062 57.7748 48.7222C57.5487 47.0931 56.8387 45.6546 55.644 44.4598C54.1699 42.9857 52.3246 42.2497 50.2083 42.2497C48.0795 42.2497 46.2208 43.011 44.7197 44.5086C43.2173 46.0077 42.4555 47.8678 42.4583 49.9997ZM42.4583 49.9997H43.9583L42.4583 50.0021C42.4583 50.0013 42.4583 50.0005 42.4583 49.9997ZM44.3333 73.7612V90.1663H39.8658L38.3634 78.1469L38.252 77.2555L37.4135 76.933C36.5919 76.617 35.8234 76.2398 35.1059 75.8023C34.3431 75.3372 33.5943 74.8384 32.8593 74.3059L32.1761 73.8108L31.3981 74.1376L20.2198 78.8344L10.0873 61.3328L19.7597 54.008L20.464 53.4746L20.3391 52.6C20.2788 52.1779 20.25 51.7809 20.25 51.408V48.5955C20.25 48.2194 20.2789 47.821 20.3391 47.3993L20.464 46.5247L19.7597 45.9914L10.0873 38.6666L20.2198 21.165L31.3981 25.8617L32.1776 26.1893L32.8614 25.6919C33.5837 25.1666 34.3401 24.6733 35.1308 24.212C35.9105 23.7572 36.6842 23.3709 37.4519 23.051L38.2555 22.7162L38.3634 21.8524L39.8658 9.83301H60.1342L61.6366 21.8524L61.748 22.7439L62.5865 23.0664C63.4086 23.3825 64.1792 23.7601 64.9002 24.1982C65.6639 24.6623 66.4093 25.1596 67.1365 25.6904L67.8208 26.1899L68.6019 25.8617L79.7802 21.165L89.9127 38.6666L80.2403 45.9914L79.536 46.5247L79.6609 47.3993C79.7161 47.7853 79.7449 48.1519 79.7494 48.4997H74.3221C74.26 47.7098 74.1828 46.9784 74.0901 46.3069C73.9917 45.5944 73.8602 44.9015 73.6951 44.2288L81.8419 38.0713L82.8961 37.2746L82.2387 36.1284L78.1762 29.0451L77.5142 27.8908L76.2892 28.4105L66.9099 32.3896C65.4867 31.0163 63.9381 29.8394 62.2645 28.8626C60.587 27.8834 58.7937 27.1076 56.8881 26.5336L55.6555 16.4837L55.4939 15.1663H54.1667H45.9375H44.6226L44.4504 16.4699L43.1218 26.5293C41.2098 27.1022 39.4124 27.8797 37.7332 28.8639C36.0708 29.8382 34.528 30.9846 33.1058 32.3013L23.6989 28.4055L22.4801 27.9007L21.8238 29.0451L17.7613 36.1284L17.099 37.2832L18.167 38.078L26.2806 44.1161C26.0686 44.8972 25.9097 45.6813 25.8048 46.4681C25.6562 47.5829 25.5833 48.7608 25.5833 49.9997C25.5833 51.1733 25.6567 52.3161 25.8048 53.4271C25.9101 54.2166 26.0697 55.0034 26.2828 55.7872L18.1581 61.928L17.1039 62.7247L17.7613 63.8709L21.8238 70.9543L22.4858 72.1086L23.7108 71.5889L33.0915 67.6092C34.6698 69.1294 36.4143 70.4314 38.323 71.513C40.1993 72.5763 42.2049 73.3253 44.3333 73.7612ZM56.3659 62.0608C56.5668 61.7483 56.7948 61.4639 57.0515 61.2067L59.075 65.2538L59.4896 66.083H60.4167H66.6667H69.0937L68.0083 63.9122L65.9687 59.833H68.8646L71.575 65.2538L71.9896 66.083H72.9167H79.1667H81.5937L80.5083 63.9122L78.4687 59.833H81.3646L84.075 65.2538L84.4896 66.083H85.4167H91.6667H94.0937L93.0083 63.9122L91.0775 60.0506C91.7738 60.2701 92.3927 60.6566 92.953 61.2157C93.8834 62.1439 94.3355 63.2357 94.3333 64.5806V64.583V85.4163C94.3333 86.7597 93.8808 87.8538 92.9506 88.7861C92.0224 89.7164 90.9307 90.1685 89.5857 90.1663H89.5833H60.4167C59.0733 90.1663 57.9814 89.7139 57.0523 88.7848C56.1237 87.8562 55.6693 86.7627 55.6667 85.4161C55.6667 85.4154 55.6667 85.4147 55.6667 85.4139L55.6667 64.583C55.6667 63.5962 55.9092 62.7713 56.3659 62.0608ZM58.9167 85.4163V86.9163H60.4167H89.5833H91.0833V85.4163V70.833V69.333H89.5833H60.4167H58.9167V70.833V85.4163Z" stroke="white" stroke-width="3"/>
</svg>
