<svg width="100" height="100" viewBox="0 0 100 100" fill="none" xmlns="http://www.w3.org/2000/svg">
<path d="M40.596 30.9171C36.3213 33.0381 32.8892 36.5417 30.8568 40.8592C28.8244 45.1766 28.3112 50.0543 29.4004 54.7002C30.4896 59.3462 33.1174 63.4875 36.8569 66.4517C40.5965 69.4159 45.2283 71.029 50.0001 71.029C54.772 71.029 59.4038 69.4159 63.1434 66.4517C66.8829 63.4875 69.5107 59.3462 70.5999 54.7002C71.6891 50.0543 71.1759 45.1766 69.1435 40.8592C67.1111 36.5417 63.679 33.0381 59.4043 30.9171M50.0001 26.5088V45.3171" stroke="white" stroke-width="5" stroke-linecap="round" stroke-linejoin="round"/>
<path d="M50.0001 89.5837C60.4982 89.5837 70.5664 85.4133 77.9897 77.99C85.413 70.5667 89.5834 60.4985 89.5834 50.0003C89.5834 39.5022 85.413 29.434 77.9897 22.0107C70.5664 14.5874 60.4982 10.417 50.0001 10.417C39.5019 10.417 29.4338 14.5874 22.0104 22.0107C14.5871 29.434 10.4167 39.5022 10.4167 50.0003C10.4167 60.4985 14.5871 70.5667 22.0104 77.99C29.4338 85.4133 39.5019 89.5837 50.0001 89.5837Z" stroke="white" stroke-width="5" stroke-linecap="round" stroke-linejoin="round"/>
</svg>
