<svg width="100" height="100" viewBox="0 0 100 100" fill="none" xmlns="http://www.w3.org/2000/svg">
<path d="M66.6667 37.5H60.4167C58.1155 37.5 56.25 39.3655 56.25 41.6667V50C56.25 52.3012 58.1155 54.1667 60.4167 54.1667H66.6667" stroke="white" stroke-width="5" stroke-linecap="round" stroke-linejoin="round"/>
<path d="M43.7499 37.5H37.4999C35.1987 37.5 33.3333 39.3655 33.3333 41.6667V50C33.3333 52.3012 35.1987 54.1667 37.4999 54.1667H43.7499" stroke="white" stroke-width="5" stroke-linecap="round" stroke-linejoin="round"/>
<path d="M60.0591 79.1667H75C81.9036 79.1667 87.5 73.5702 87.5 66.6667V25C87.5 18.0964 81.9036 12.5 75 12.5H25C18.0964 12.5 12.5 18.0964 12.5 25V66.6667C12.5 73.5702 18.0964 79.1667 25 79.1667H39.9409" stroke="white" stroke-width="5" stroke-linecap="round" stroke-linejoin="round"/>
<path d="M60.0591 79.167L52.9462 86.2799C51.319 87.907 48.681 87.907 47.0538 86.2799L39.9409 79.167" stroke="white" stroke-width="5" stroke-linecap="round" stroke-linejoin="round"/>
</svg>
