<svg width="100" height="100" viewBox="0 0 100 100" fill="none" xmlns="http://www.w3.org/2000/svg">
<g clip-path="url(#clip0_1201_262)">
<path d="M49.9983 64.1375C47.6592 64.1369 45.3301 64.4431 43.0706 65.0483L43.0684 65.0489C40.8326 65.6586 38.7917 66.4741 36.8495 67.5985L36.8494 67.5984L36.8393 67.6046C35.0102 68.7224 33.1808 70.1381 31.6521 71.6658C30.0148 73.2019 28.6873 74.94 27.5673 76.8745C26.4176 78.8561 25.5272 80.9773 24.918 83.1858L24.9179 83.1858L24.9149 83.1975L24.9026 83.2466C24.7079 84.0252 24.5061 84.8323 24.4039 85.6505L24.3666 85.9486L24.6124 86.1215C31.7914 91.1709 40.4909 94.2063 50 94.2063H50.0008C59.1249 94.1918 68.0234 91.3691 75.4876 86.1215L75.7404 85.9438L75.6944 85.6382C75.3892 83.6074 74.88 81.6735 74.166 79.8375L74.1662 79.8375L74.161 79.8252C72.8367 76.6715 71.0009 73.9188 68.6536 71.5714L68.6536 71.5714L68.6465 71.5645C63.6374 66.7507 56.9452 64.0855 49.9983 64.1375ZM49.9983 64.1375C49.9989 64.1375 49.9995 64.1375 50.0002 64.1375L50 64.6375M49.9983 64.1375C49.9976 64.1375 49.9969 64.1375 49.9962 64.1375L50 64.6375M50 64.6375C47.704 64.6367 45.4178 64.9372 43.2 65.5312L68.3 71.925C63.3845 67.2012 56.8172 64.5859 50 64.6375ZM18.0498 87.6552L18.0393 87.6447L18.024 87.6317C7.32954 78.534 0.5 64.983 0.5 49.95C0.5 22.6516 22.6757 0.5 50 0.5C77.3243 0.5 99.5 22.6516 99.5 49.95C99.5 64.9831 92.6701 78.5307 82.1704 87.7365L82 87.8859V87.9095C81.9912 87.917 81.9823 87.9248 81.9733 87.9331C81.5353 88.2733 81.0724 88.6144 80.6038 88.9589L80.5388 89.0067C80.0935 89.3341 79.6438 89.6646 79.2154 89.9943C78.9559 90.1554 78.7234 90.3355 78.5138 90.4978L78.4939 90.5133C78.2662 90.6895 78.0636 90.845 77.8428 90.9775L77.831 90.9845L77.8197 90.9922C69.6362 96.5315 59.982 99.4946 50.1 99.5C40.2247 99.4946 30.5769 96.5355 22.397 91.0035C22.2742 90.9048 22.1497 90.7993 22.0225 90.6915C21.6954 90.4143 21.3507 90.1222 20.9728 89.8931C20.03 89.2325 19.1758 88.5712 18.3158 87.9025C18.3085 87.8903 18.3007 87.8783 18.2924 87.8664C18.227 87.773 18.1483 87.7188 18.1149 87.6965C18.0984 87.6855 18.0816 87.6751 18.0725 87.6695L18.0701 87.6681C18.0593 87.6614 18.0546 87.6584 18.0508 87.6559C18.0504 87.6556 18.0501 87.6554 18.0498 87.6552ZM62.0536 29.0152L62.0528 29.0145C60.5058 27.4739 58.6543 26.2411 56.6052 25.319C54.5322 24.3862 52.3609 23.975 50 23.975C47.7408 23.975 45.4691 24.3856 43.3948 25.319C41.3465 26.2408 39.4943 27.4673 37.9464 29.0152C36.3995 30.5622 35.1664 32.4077 34.244 34.4573C33.311 36.5307 32.9003 38.8015 32.9 41.0538C32.8774 43.3218 33.3335 45.569 34.2385 47.6487C35.0555 49.6975 36.284 51.5502 37.8475 53.1046L37.8484 53.1055C39.4227 54.6625 41.2708 55.9156 43.2998 56.8019L43.2998 56.8021L43.3103 56.8064C47.5648 58.551 52.3352 58.551 56.5897 56.8064L56.5898 56.8065L56.6002 56.8019C58.6292 55.9156 60.4773 54.6625 62.0516 53.1055L62.0552 53.1019C63.6138 51.5288 64.8687 49.6816 65.7569 47.6531C66.6892 45.5868 67.1 43.416 67.1 41.0562C67.1 38.8032 66.6893 36.5315 65.756 34.4573L65.7557 34.4568C64.8337 32.4142 63.6008 30.5625 62.0536 29.0152ZM80.6 80.6188V81.8281L81.454 80.9718C89.6681 72.7359 94.2868 61.5825 94.3 49.9506V49.95C94.3 25.5984 74.3757 5.69375 50 5.69375C25.6243 5.69375 5.7 25.5984 5.7 49.95C5.7 62.0782 10.6585 72.9896 18.6444 81.0702L19.5 81.936V80.7188C19.5 80.6231 19.5042 80.5284 19.5472 80.4424L19.5658 80.4052L19.578 80.3655C20.5252 77.2805 21.9522 74.3637 23.8065 71.7225C25.6793 69.1604 27.9454 66.8026 30.5049 64.8338L30.5073 64.8319C32.4757 63.2979 34.6235 62.0092 36.9034 60.9943L37.7568 60.6144L36.9673 60.1149C35.8978 59.4384 34.9269 58.6635 34.0536 57.7902C32.566 56.3026 31.2038 54.7411 30.2371 53.0009L30.2319 52.9915L30.2262 52.9824C29.153 51.2323 28.37 49.375 27.7808 47.3126L27.7808 47.3126L27.7788 47.3061C27.1936 45.3594 26.9 43.3102 26.9 41.1562L26.9 41.1511C26.868 38.0661 27.4673 35.0071 28.6611 32.1622C29.8097 29.4271 31.4711 26.937 33.5557 24.8264L33.5585 24.8235C35.6397 22.683 38.1348 20.9884 40.8918 19.843L40.8935 19.8423C43.7421 18.6469 46.8054 18.0476 49.8946 18.0812V18.0813L49.9058 18.0812C52.994 18.0456 56.0568 18.6427 58.9055 19.8356C61.6363 20.9969 64.1266 22.6571 66.2489 24.731C68.3678 26.8325 70.0623 29.3223 71.2399 32.0644C72.433 34.9087 73.032 37.9668 73 41.0511H72.9999L73.0001 41.0641C73.0653 45.2296 71.9464 49.3281 69.7736 52.8826C68.6949 54.6313 67.4108 56.2445 65.9487 57.6879L65.9446 57.692C65.0842 58.5613 64.1386 59.3418 63.122 60.0219L62.3636 60.5293L63.1994 60.8955C65.4704 61.8905 67.6182 63.1461 69.5993 64.637C72.19 66.5878 74.4487 68.944 76.2882 71.6149L76.2891 71.6161C78.1167 74.2525 79.5374 77.1486 80.5037 80.2073C80.5152 80.3463 80.5512 80.4538 80.5727 80.518L80.5757 80.5269C80.6 80.6 80.6 80.6076 80.6 80.618V80.6188ZM80.9738 80.0355C79.9925 76.9369 78.5519 74.0028 76.7 71.3313L80.8918 80.1188C80.9192 80.091 80.9465 80.0633 80.9738 80.0355Z" fill="white" stroke="black"/>
</g>
<defs>
<clipPath id="clip0_1201_262">
<rect width="100" height="100" fill="white"/>
</clipPath>
</defs>
</svg>
