<svg width="100" height="100" viewBox="0 0 100 100" fill="none" xmlns="http://www.w3.org/2000/svg">
<path d="M44.375 79.625V20.375C44.375 14.75 42 12.5 36 12.5H20.875C14.875 12.5 12.5 14.75 12.5 20.375V79.625C12.5 85.25 14.875 87.5 20.875 87.5H36C42 87.5 44.375 85.25 44.375 79.625Z" fill="white"/>
<path d="M87.5 79.625V20.375C87.5 14.75 85.125 12.5 79.125 12.5H64C58.0417 12.5 55.625 14.75 55.625 20.375V79.625C55.625 85.25 58 87.5 64 87.5H79.125C85.125 87.5 87.5 85.25 87.5 79.625Z" fill="white"/>
</svg>
